<svg width="21" height="21" viewBox="0 0 21 21" fill="none" xmlns="http://www.w3.org/2000/svg">
<path d="M9.19077 0L7.88155 3.03448C7.6197 3.11098 7.38404 3.23848 7.14838 3.36598L4.03242 2.09099L2.14713 3.92697L3.45636 6.96145C3.32544 7.21645 3.2207 7.42045 3.11596 7.67545L0 8.95044V11.5004L3.11596 12.7754C3.2207 13.0304 3.32544 13.2344 3.45636 13.4894L2.14713 16.5239L4.03242 18.3599L7.14838 17.0849C7.38404 17.1869 7.6197 17.3144 7.88155 17.4164L9.19077 20.4509H11.8092L13.1185 17.4164C13.3541 17.3144 13.616 17.2124 13.8516 17.0849L16.9676 18.3599L18.8529 16.5239L17.5436 13.4894C17.6484 13.2599 17.7793 13.0049 17.884 12.7754L21 11.5004V8.95044L17.884 7.67545C17.8055 7.44595 17.6746 7.19095 17.5436 6.96145L18.8529 3.92697L16.9676 2.09099L13.8516 3.36598C13.616 3.26398 13.3541 3.13648 13.1185 3.03448L11.8092 0L9.19077 0ZM10.5 6.37496C12.6733 6.37496 14.4277 8.08344 14.4277 10.1999C14.4277 12.3164 12.6733 14.0249 10.5 14.0249C8.32668 14.0249 6.57232 12.3164 6.57232 10.1999C6.57232 8.08344 8.32668 6.37496 10.5 6.37496Z" fill="#E0AAFF"/>
</svg>
